<svg width="995" height="184" viewBox="0 0 995 184" fill="none" xmlns="http://www.w3.org/2000/svg">
<path d="M113.895 119.969C113.895 126.453 112.297 132.373 109.102 137.729C106.001 142.992 101.773 147.221 96.4161 150.416C91.0597 153.611 85.1394 155.208 78.6554 155.208H21.9901V141.253H78.6554C82.6022 141.253 86.1731 140.314 89.3682 138.434C92.5633 136.461 95.1005 133.877 96.9799 130.682C98.8594 127.392 99.7991 123.822 99.7991 119.969C99.7991 116.022 98.8594 112.451 96.9799 109.256C95.1005 106.061 92.5633 103.524 89.3682 101.644C86.1731 99.7647 82.6022 98.8249 78.6554 98.8249H14.0965V183.4H0.000651586V84.7291H78.6554C85.1394 84.7291 91.0597 86.3266 96.4161 89.5217C101.773 92.6228 106.001 96.8515 109.102 102.208C112.297 107.564 113.895 113.485 113.895 119.969ZM242.602 183.4H223.573L193.971 155.208H150.697V141.253H207.362C211.309 141.253 214.88 140.314 218.075 138.434C221.27 136.461 223.808 133.877 225.687 130.682C227.566 127.392 228.506 123.822 228.506 119.969C228.506 116.022 227.566 112.451 225.687 109.256C223.808 106.061 221.27 103.524 218.075 101.644C214.88 99.7647 211.309 98.8249 207.362 98.8249H142.803V183.4H128.708V84.7291H207.362C213.846 84.7291 219.767 86.3266 225.123 89.5217C230.48 92.6228 234.708 96.8515 237.809 102.208C241.004 107.564 242.602 113.485 242.602 119.969C242.602 125.795 241.286 131.198 238.655 136.179C236.118 141.159 232.594 145.294 228.083 148.583C223.667 151.778 218.639 153.846 213.001 154.785L242.602 183.4ZM378.422 134.065C378.422 140.924 377.341 147.362 375.18 153.376C373.018 159.296 369.917 164.511 365.877 169.022C361.93 173.533 357.184 177.057 351.64 179.594C346.095 182.131 339.94 183.4 333.174 183.4H300.331C293.471 183.4 287.269 182.131 281.724 179.594C276.18 177.057 271.388 173.533 267.347 169.022C263.4 164.511 260.346 159.296 258.184 153.376C256.023 147.362 254.942 140.924 254.942 134.065C254.942 127.299 256.023 120.955 258.184 115.035C260.346 109.021 263.4 103.758 267.347 99.2478C271.388 94.6432 276.18 91.0722 281.724 88.535C287.269 85.9977 293.471 84.7291 300.331 84.7291H333.174C339.94 84.7291 346.095 85.9977 351.64 88.535C357.184 91.0722 361.93 94.6432 365.877 99.2478C369.917 103.758 373.018 109.021 375.18 115.035C377.341 120.955 378.422 127.299 378.422 134.065ZM364.326 134.065C364.326 127.58 363.057 121.66 360.52 116.304C358.077 110.947 354.506 106.719 349.807 103.618C345.203 100.422 339.658 98.8249 333.174 98.8249H300.331C293.847 98.8249 288.256 100.422 283.557 103.618C278.952 106.719 275.381 110.947 272.844 116.304C270.307 121.66 269.038 127.58 269.038 134.065C269.038 140.549 270.307 146.469 272.844 151.825C275.381 157.088 278.952 161.316 283.557 164.511C288.256 167.707 293.847 169.304 300.331 169.304H333.174C339.658 169.304 345.203 167.707 349.807 164.511C354.506 161.316 358.077 157.088 360.52 151.825C363.057 146.469 364.326 140.549 364.326 134.065ZM467.489 183.4H453.393V134.065C453.393 127.58 451.795 121.66 448.6 116.304C445.499 110.947 441.271 106.719 435.914 103.618C430.558 100.422 424.637 98.8249 418.153 98.8249H410.542V183.4H396.446V84.7291H418.153C427.081 84.7291 435.256 86.9375 442.68 91.3541C450.198 95.7708 456.118 101.55 460.441 108.692C464.764 101.55 470.637 95.7708 478.061 91.3541C485.578 86.9375 493.801 84.7291 502.728 84.7291H524.436V183.4H510.34V98.8249H502.728C496.244 98.8249 490.324 100.422 484.968 103.618C479.705 106.719 475.476 110.947 472.281 116.304C469.086 121.66 467.489 127.58 467.489 134.065V183.4ZM662.035 119.969C662.035 126.453 660.438 132.373 657.243 137.729C654.142 142.992 649.913 147.221 644.557 150.416C639.2 153.611 633.28 155.208 626.796 155.208H570.131V141.253H626.796C630.743 141.253 634.314 140.314 637.509 138.434C640.704 136.461 643.241 133.877 645.12 130.682C647 127.392 647.94 123.822 647.94 119.969C647.94 116.022 647 112.451 645.12 109.256C643.241 106.061 640.704 103.524 637.509 101.644C634.314 99.7647 630.743 98.8249 626.796 98.8249H562.237V183.4H548.141V84.7291H626.796C633.28 84.7291 639.2 86.3266 644.557 89.5217C649.913 92.6228 654.142 96.8515 657.243 102.208C660.438 107.564 662.035 113.485 662.035 119.969ZM730.412 183.4H716.316V98.8249H666.417V84.7291H780.311V98.8249H730.412V183.4ZM995.007 183.4H960.685L888.897 109.516L817.371 183.4H783.049L871.867 91.6999L783.049 -0.000110149H817.371L995.007 183.4ZM995.007 -0.000110149L915.097 82.2679L898.067 64.7139L960.685 -0.000110149H995.007Z" fill="white"/>
</svg>
